<?xml version="1.0" standalone="no"?>
<!DOCTYPE svg PUBLIC "-//W3C//DTD SVG 20010904//EN"
 "http://www.w3.org/TR/2001/REC-SVG-20010904/DTD/svg10.dtd">
<svg version="1.0" xmlns="http://www.w3.org/2000/svg"
 width="256.000000pt" height="256.000000pt" viewBox="0 0 256.000000 256.000000"
 preserveAspectRatio="xMidYMid meet">

<g transform="translate(0.000000,256.000000) scale(0.100000,-0.100000)"
fill="#000000" stroke="none">
<path d="M1085 2471 c-3 -5 3 -12 12 -15 10 -2 5 -4 -12 -4 -54 2 -76 -2 -70
-11 3 -5 -10 -22 -30 -37 -23 -17 -35 -35 -35 -50 0 -22 14 -33 22 -16 4 10
63 42 77 42 8 0 8 -6 -1 -19 -6 -10 -16 -17 -22 -15 -6 2 -17 -5 -23 -16 -12
-18 -11 -19 13 -10 37 14 48 12 62 -11 13 -20 9 -31 -39 -102 -9 -13 -91 64
-85 79 3 8 0 11 -8 8 -7 -3 -20 2 -28 10 -14 13 -19 13 -52 -5 -30 -16 -40
-17 -56 -7 -14 9 -16 16 -8 25 6 7 17 13 24 13 8 0 14 5 14 10 0 17 -15 11
-40 -15 -13 -14 -31 -25 -41 -25 -10 0 -32 -12 -50 -27 -38 -32 -102 -129 -96
-146 2 -6 -14 -19 -35 -29 -21 -9 -38 -22 -38 -28 0 -16 -25 -12 -53 10 -25
20 -25 20 -51 -1 -14 -11 -26 -25 -26 -31 0 -7 10 -2 23 10 29 28 41 18 20
-15 -12 -18 -13 -27 -5 -32 7 -4 3 -13 -13 -25 -14 -10 -25 -28 -25 -40 0 -12
-7 -33 -14 -48 -11 -20 -12 -37 -6 -59 5 -18 7 -36 4 -40 -9 -15 -24 -10 -24
7 0 8 4 12 10 9 6 -3 7 1 4 9 -8 22 -24 10 -24 -18 0 -13 -7 -29 -15 -36 -18
-15 -19 -37 -2 -43 7 -3 5 -6 -5 -6 -10 -1 -18 -5 -18 -11 0 -5 7 -7 15 -4 10
4 15 0 15 -11 0 -12 -5 -15 -20 -10 -23 7 -26 -4 -7 -24 10 -11 9 -13 -5 -8
-23 8 -52 -56 -51 -115 0 -27 -3 -48 -8 -48 -5 0 -6 7 -3 15 4 8 1 15 -5 15
-11 0 -12 -1 -16 -37 -1 -12 -5 -29 -9 -38 -3 -9 1 -23 9 -31 8 -9 15 -21 15
-27 0 -8 -3 -7 -9 2 -11 18 -31 5 -31 -20 0 -21 16 -26 23 -6 2 6 4 0 4 -15 1
-29 -11 -38 -20 -15 -7 15 -27 -10 -27 -33 0 -13 1 -13 10 0 7 11 12 12 21 3
8 -8 8 -24 1 -56 -9 -42 -8 -46 15 -56 22 -10 24 -16 19 -56 -2 -25 0 -45 5
-45 5 0 9 -7 9 -15 0 -8 -4 -15 -9 -15 -5 0 -7 -9 -4 -20 3 -11 9 -20 14 -20
5 0 9 -4 9 -9 0 -6 -9 -8 -21 -6 -20 4 -20 1 -14 -47 6 -40 4 -49 -5 -43 -10
6 -11 2 -6 -16 12 -40 14 -69 5 -74 -4 -3 -4 -19 1 -35 5 -19 5 -30 -1 -30 -6
0 -7 -5 -3 -11 3 -6 0 -15 -7 -20 -11 -7 -11 -9 -1 -9 9 0 13 -10 11 -27 -1
-16 1 -38 5 -51 13 -40 26 -13 21 45 -3 35 -1 61 7 70 7 9 8 17 2 21 -15 10
-17 82 -3 82 7 0 9 9 5 25 -4 14 -2 25 4 25 5 0 10 -6 11 -12 0 -7 2 -26 4
-43 2 -16 2 -24 -1 -17 -3 6 -10 12 -15 12 -15 0 -10 -19 11 -40 11 -11 20
-22 20 -25 0 -3 0 -9 0 -15 0 -5 5 -10 11 -10 13 0 48 -40 49 -55 0 -6 11 -23
25 -38 14 -15 23 -27 18 -27 -4 0 2 -6 12 -14 13 -9 16 -19 10 -32 -9 -23 -14
-54 -7 -54 3 0 11 8 18 17 8 11 13 13 14 6 0 -7 11 -13 25 -13 14 0 24 -5 23
-12 -2 -7 4 -12 12 -13 8 0 14 -8 12 -16 -1 -9 5 -22 13 -29 13 -11 14 -10 9
5 -5 13 -4 16 5 11 6 -4 10 -15 7 -24 -2 -11 16 -34 54 -67 32 -27 59 -53 59
-57 1 -12 44 -53 56 -53 5 -1 30 -7 55 -14 64 -19 109 -21 118 -6 4 7 17 15
29 19 16 5 23 2 28 -15 4 -12 10 -17 14 -12 8 13 41 12 40 -1 -1 -6 2 -20 6
-31 5 -17 13 -20 43 -17 20 3 42 11 50 18 7 8 25 14 40 14 25 0 25 1 6 15 -18
13 -16 14 23 15 23 0 45 5 48 10 8 12 46 3 58 -14 4 -7 9 -4 13 9 4 17 13 20
52 20 36 -1 56 5 86 27 27 19 43 25 50 18 7 -7 3 -15 -10 -25 -23 -18 -8 -19
51 -3 31 9 48 9 55 2 21 -21 59 -4 72 32 7 20 17 33 24 30 7 -3 14 0 16 6 2 5
29 12 61 14 55 4 63 0 58 -29 0 -4 8 -7 20 -7 11 0 18 4 15 9 -4 5 0 12 6 14
8 3 6 6 -4 6 -20 1 -14 31 9 44 8 5 11 16 8 28 -4 11 -2 19 5 19 6 0 11 -12 9
-27 -1 -16 1 -36 6 -45 4 -11 1 -23 -9 -33 -9 -9 -16 -19 -17 -23 0 -4 -2 -21
-3 -39 -2 -18 1 -31 6 -30 6 1 13 -4 15 -11 3 -8 -2 -10 -14 -6 -15 5 -15 4
-3 -5 8 -6 27 -11 42 -11 14 0 28 -6 31 -12 3 -9 11 -5 22 10 9 12 25 30 34
40 24 22 35 69 18 75 -8 3 -7 10 7 26 11 11 17 22 15 24 -2 1 -22 11 -43 20
-29 13 -41 15 -46 7 -5 -9 -10 -9 -14 -2 -4 6 -14 9 -24 6 -10 -3 -5 5 12 19
20 18 24 26 15 30 -11 4 -11 6 -1 6 10 1 9 5 -3 17 -13 13 -18 14 -33 3 -13
-11 -13 -9 2 9 19 22 43 31 31 12 -9 -14 8 -12 24 3 11 10 12 9 6 -2 -6 -11
-4 -13 8 -8 9 3 17 1 19 -5 2 -6 12 1 21 16 10 14 13 26 8 26 -5 0 -13 -4 -16
-10 -3 -5 -10 -10 -16 -10 -18 0 -9 20 17 37 20 13 30 14 44 6 13 -9 21 -8 35
5 16 16 17 16 12 0 -4 -13 1 -16 28 -16 27 0 32 3 22 13 -7 7 -15 11 -18 9 -3
-2 -17 8 -29 21 -22 23 -22 25 -4 26 42 3 47 5 52 18 3 8 0 11 -7 7 -17 -11
-13 20 4 34 8 7 15 18 15 25 0 8 5 15 11 17 8 3 5 11 -7 22 -18 18 -17 18 4
12 16 -6 22 -3 22 8 0 9 7 16 16 16 13 0 15 7 11 35 -3 20 -2 35 4 35 6 0 7
-4 4 -10 -3 -5 -1 -10 4 -10 6 0 11 4 11 9 0 5 8 17 18 27 9 10 17 20 17 23 1
3 6 16 14 29 7 13 10 28 8 35 -3 7 -8 4 -13 -8 -14 -35 -46 -86 -51 -81 -5 5
65 126 73 126 3 0 2 -4 -1 -10 -3 -5 -2 -10 3 -10 13 0 72 123 72 150 0 11 7
23 15 26 9 4 13 14 11 23 -8 24 28 174 42 179 7 2 12 -6 12 -19 0 -36 12 -14
14 25 1 20 -2 36 -6 36 -5 0 -8 -4 -8 -10 0 -5 -4 -10 -10 -10 -5 0 -10 18
-10 40 0 42 7 48 29 28 11 -11 13 -10 9 2 -3 10 -19 15 -46 16 -22 0 -47 6
-55 12 -8 7 -17 9 -20 5 -14 -13 1 83 20 137 9 23 11 120 3 120 -4 0 -7 -14
-8 -31 0 -17 -4 -45 -8 -62 -6 -28 -8 -30 -15 -12 -7 17 -8 16 -8 -7 -1 -16 3
-28 9 -28 5 0 7 -7 3 -17 -13 -34 -25 31 -24 132 0 55 -4 128 -10 163 -16 106
-19 173 -7 166 8 -5 9 -1 3 12 -4 10 -8 34 -9 53 -1 19 -7 36 -14 38 -8 3 -10
-1 -6 -14 5 -14 1 -13 -19 7 -46 44 -57 52 -57 39 0 -8 -14 -10 -47 -5 -36 5
-51 2 -65 -11 -21 -19 -24 -37 -4 -30 12 5 79 -13 90 -24 3 -3 -4 -10 -14 -17
-16 -10 -20 -10 -20 1 0 9 -11 14 -30 13 -16 -1 -30 -2 -30 -3 0 -1 21 -12 46
-25 25 -12 55 -33 65 -46 10 -13 22 -21 27 -18 13 8 29 -13 37 -46 6 -25 5
-27 -27 -26 -39 1 -78 24 -78 46 0 12 -8 13 -42 8 -24 -3 -53 -9 -65 -12 -23
-6 -23 -5 -20 90 l3 95 -31 11 c-51 19 -60 26 -63 49 -3 17 2 21 23 21 20 0
29 -8 40 -32 11 -26 14 -28 15 -12 0 30 -31 54 -72 54 -21 0 -41 7 -49 16 -11
13 -28 15 -99 11 -47 -3 -94 -8 -105 -10 -11 -3 -23 -6 -27 -6 -5 -1 -8 -8 -8
-17 0 -12 -3 -14 -13 -6 -7 6 -35 15 -62 19 -48 8 -50 10 -53 43 -4 41 -15 50
-62 49 -36 -1 -34 -3 13 -13 31 -7 37 -26 8 -26 -31 0 -50 -11 -45 -25 4 -10
-5 -11 -41 -4 -26 5 -51 11 -56 14 -5 4 -9 2 -9 -4 0 -5 6 -11 13 -14 9 -3 9
-7 0 -17 -10 -10 -18 -10 -42 0 -17 7 -31 16 -31 21 0 4 -8 10 -18 13 -24 8
-23 46 1 46 11 0 15 -4 11 -12 -5 -7 -3 -8 5 -4 7 5 21 0 32 -10 10 -9 19 -12
19 -6 0 6 -10 17 -22 23 -13 7 -34 23 -47 35 -13 13 -30 24 -37 24 -8 0 -14 6
-14 14 0 12 -6 12 -35 3 -38 -11 -59 -3 -35 14 13 9 12 10 -2 5 -10 -3 -20 -1
-23 4 -8 13 -22 13 -30 1z m14 -55 c-12 -10 -69 -24 -69 -16 0 5 8 11 18 13
22 6 57 8 51 3z m-99 -40 c0 -2 -7 -7 -16 -10 -8 -3 -12 -2 -9 4 6 10 25 14
25 6z m490 -46 c0 -5 -5 -10 -11 -10 -5 0 -7 5 -4 10 3 6 8 10 11 10 2 0 4 -4
4 -10z m-260 -46 c0 -8 -4 -14 -9 -14 -11 0 -22 26 -14 34 9 9 23 -3 23 -20z
m30 16 c0 -5 -4 -10 -10 -10 -5 0 -10 5 -10 10 0 6 5 10 10 10 6 0 10 -4 10
-10z m540 -10 c0 -5 -5 -10 -11 -10 -5 0 -7 5 -4 10 3 6 8 10 11 10 2 0 4 -4
4 -10z m-885 -30 c3 -5 2 -10 -4 -10 -5 0 -13 5 -16 10 -3 6 -2 10 4 10 5 0
13 -4 16 -10z m985 -10 c0 -5 -2 -10 -4 -10 -3 0 -8 5 -11 10 -3 6 -1 10 4 10
6 0 11 -4 11 -10z m-485 -30 c3 -5 1 -10 -4 -10 -6 0 -11 5 -11 10 0 6 2 10 4
10 3 0 8 -4 11 -10z m-69 -25 c-10 -8 -15 -19 -10 -26 4 -8 3 -10 -4 -5 -18
11 -14 34 6 39 28 7 28 7 8 -8z m464 -5 c-14 -4 -34 -8 -45 -8 l-20 -1 20 9
c11 5 31 8 45 8 l25 0 -25 -8z m345 -10 c7 -12 -2 -12 -30 0 -19 8 -19 9 2 9
12 1 25 -3 28 -9z m-1391 -34 c-9 -15 -19 -24 -22 -22 -2 3 3 17 12 32 10 14
20 23 23 21 2 -3 -3 -17 -13 -31z m1230 9 c3 -8 1 -15 -4 -15 -6 0 -10 7 -10
15 0 8 2 15 4 15 2 0 6 -7 10 -15z m216 5 c0 -5 -7 -7 -15 -4 -8 4 -15 8 -15
10 0 2 7 4 15 4 8 0 15 -4 15 -10z m-381 -19 c6 -10 7 -21 4 -25 -10 -9 -33
-7 -30 3 1 5 -2 9 -8 9 -5 0 -9 -4 -7 -9 1 -5 -9 -2 -23 7 -23 15 -37 33 -15
19 5 -3 18 -1 27 4 27 15 41 13 52 -8z m-1002 -17 c2 -10 0 -13 -3 -7 -4 9
-11 10 -25 3 -21 -12 -26 -1 -7 18 16 16 32 10 35 -14z m1423 11 c7 -9 11 -17
8 -20 -2 -2 -12 4 -21 15 -9 11 -13 20 -8 20 5 0 14 -7 21 -15z m-517 -11 c15
-6 25 -24 12 -24 -13 0 -55 25 -55 32 0 6 6 7 13 4 6 -3 20 -9 30 -12z m-53
-9 c11 -13 10 -14 -4 -9 -9 3 -16 10 -16 15 0 13 6 11 20 -6z m525 -15 c8 -13
-5 -13 -25 0 -13 8 -13 10 2 10 9 0 20 -4 23 -10z m-1428 -6 c-3 -3 -12 -4
-19 -1 -8 3 -5 6 6 6 11 1 17 -2 13 -5z m12 -28 c-15 -13 -49 -25 -49 -17 0 5
8 12 18 14 24 6 36 8 31 3z m-309 -30 c0 -3 -4 -8 -10 -11 -5 -3 -10 -1 -10 4
0 6 5 11 10 11 6 0 10 -2 10 -4z m260 -10 c0 -3 -4 -8 -10 -11 -5 -3 -10 -1
-10 4 0 6 5 11 10 11 6 0 10 -2 10 -4z m1521 -88 c0 -13 3 -17 6 -10 5 13 23
7 23 -8 0 -5 -14 -8 -30 -7 -20 1 -29 6 -25 15 3 8 5 18 5 23 0 20 20 7 21
-13z m-1776 -58 c-11 -30 -11 -40 -2 -40 7 0 13 12 13 26 2 28 10 41 21 31 11
-12 -17 -117 -32 -117 -17 0 -36 -56 -29 -84 3 -14 -1 -28 -10 -35 -9 -8 -16
-21 -17 -30 0 -11 -2 -12 -6 -3 -3 7 1 19 7 28 16 19 10 25 -19 17 -17 -4 -19
-8 -9 -15 10 -7 8 -13 -11 -28 -19 -17 -21 -23 -11 -35 11 -13 10 -14 -2 -10
-9 4 -19 -6 -28 -30 -7 -19 -18 -35 -23 -35 -10 0 -1 32 24 82 11 21 19 42 19
48 0 6 11 36 25 66 14 30 25 57 25 59 0 3 14 36 31 75 34 75 57 96 34 30z
m1811 -37 c-2 -16 -5 -41 -6 -58 -1 -26 -3 -27 -10 -10 -8 18 -9 17 -9 -7 -1
-16 -4 -28 -8 -28 -19 1 -33 18 -27 33 3 9 11 14 17 10 6 -4 8 0 4 11 -4 10
-1 19 8 22 8 4 15 14 15 23 0 16 8 31 17 31 2 0 2 -12 -1 -27z m-1144 -120
l16 -27 132 -1 131 -1 17 28 c9 15 25 28 35 28 10 0 61 -14 113 -31 106 -35
108 -37 172 -164 72 -144 102 -268 102 -427 0 -77 -3 -90 -22 -108 -26 -24
-177 -103 -232 -120 -43 -14 -38 -17 -78 54 l-18 30 42 17 c22 8 46 22 52 31
15 19 42 29 91 34 23 1 51 7 63 11 22 8 18 12 -42 51 -36 23 -66 49 -66 57 0
8 4 15 9 15 5 0 12 9 16 19 4 13 12 18 21 14 17 -6 64 15 64 29 0 5 -8 12 -17
15 -20 8 -35 19 -66 49 -12 11 -41 26 -64 32 -30 9 -45 20 -54 41 -7 15 -29
39 -48 52 -20 13 -58 41 -85 62 -33 25 -52 34 -56 27 -5 -7 -10 -3 -13 11 -4
13 -9 20 -13 16 -4 -4 -17 0 -30 8 -19 12 -59 13 -71 1 -2 -2 10 -14 27 -26
16 -12 27 -26 24 -32 -4 -6 -2 -8 4 -4 5 3 31 -10 56 -29 26 -19 50 -35 54
-35 4 -1 17 -9 30 -19 38 -33 26 -52 -34 -55 -27 -1 -49 10 -104 51 -39 29
-90 62 -113 74 -46 23 -97 40 -97 33 0 -11 36 -60 53 -73 10 -7 22 -24 28 -38
5 -13 21 -28 37 -34 15 -5 36 -21 46 -34 11 -14 29 -25 42 -25 13 0 24 -4 24
-10 0 -5 11 -12 25 -16 14 -3 22 -10 19 -15 -3 -5 0 -9 5 -9 6 0 11 -8 11 -17
0 -10 8 -32 19 -48 l18 -31 -23 -2 c-16 -1 -29 7 -40 23 -9 14 -20 23 -24 20
-5 -3 -12 4 -15 16 -6 17 -9 19 -16 8 -5 -9 -9 -10 -9 -2 0 15 -71 91 -90 95
-8 2 -23 10 -33 20 -67 58 -169 6 -169 -87 0 -45 24 -81 67 -102 33 -16 37
-16 70 0 20 9 41 28 47 42 11 24 12 25 31 8 15 -13 18 -14 13 -3 -4 9 -2 8 7
-2 8 -10 19 -18 25 -18 6 0 17 -9 25 -20 8 -11 35 -31 61 -45 52 -28 76 -48
76 -64 0 -5 12 -16 27 -23 73 -36 17 -53 -167 -52 -107 1 -137 5 -205 27 -87
29 -121 22 -64 -12 19 -12 37 -21 42 -21 14 0 7 -30 -15 -65 -19 -29 -28 -34
-48 -30 -39 8 -222 101 -249 126 -23 22 -24 25 -18 148 9 184 51 325 142 466
33 53 37 54 220 110 27 9 42 3 57 -22z m1142 12 c-4 -8 -8 -15 -10 -15 -2 0
-4 7 -4 15 0 8 4 15 10 15 5 0 7 -7 4 -15z m-1981 -123 c-6 -24 -23 -30 -23
-9 0 13 21 39 26 34 2 -2 1 -13 -3 -25z m-6 -58 c-9 -9 -28 6 -21 18 4 6 10 6
17 -1 6 -6 8 -13 4 -17z m1153 -69 c7 -9 8 -15 2 -15 -5 0 -12 7 -16 15 -3 8
-4 15 -2 15 2 0 9 -7 16 -15z m937 -67 c-3 -8 -6 -5 -6 6 -1 11 2 17 5 13 3
-3 4 -12 1 -19z m-57 -133 c0 -3 -4 -13 -9 -23 -5 -9 -13 -26 -17 -37 -7 -19
-7 -19 -12 -1 -4 20 16 66 30 66 4 0 8 -2 8 -5z m-770 -146 c0 -5 -9 -9 -20
-9 -22 0 -27 16 -7 23 15 5 27 -1 27 -14z m-30 -53 c-14 -14 -22 -2 -14 18 5
14 9 15 15 4 4 -7 4 -17 -1 -22z m797 2 c-3 -8 -6 -5 -6 6 -1 11 2 17 5 13 3
-3 4 -12 1 -19z m-767 -23 c0 -9 -6 -12 -15 -9 -8 4 -15 10 -15 15 0 5 7 9 15
9 8 0 15 -7 15 -15z m-1300 -97 c0 -16 -3 -19 -11 -11 -6 6 -8 16 -5 22 11 17
16 13 16 -11z m1940 -112 c0 -3 -4 -8 -10 -11 -5 -3 -10 -1 -10 4 0 6 5 11 10
11 6 0 10 -2 10 -4z m-247 -91 c-3 -9 -8 -14 -10 -11 -3 3 -2 9 2 15 9 16 15
13 8 -4z m167 -34 c0 -5 -7 -14 -15 -21 -12 -10 -15 -10 -15 2 0 8 3 18 7 21
9 10 23 9 23 -2z m-30 -51 c0 -5 -5 -10 -11 -10 -5 0 -7 5 -4 10 3 6 8 10 11
10 2 0 4 -4 4 -10z m-30 -40 c0 -5 -7 -10 -15 -10 -8 0 -15 5 -15 10 0 6 7 10
15 10 8 0 15 -4 15 -10z m-320 -199 c0 -14 -6 -19 -20 -18 -25 2 -26 13 -2 26
23 14 22 14 22 -8z"/>
<path d="M436 1774 c-10 -25 1 -29 14 -5 6 12 7 21 1 21 -5 0 -12 -7 -15 -16z"/>
<path d="M415 1730 c-3 -5 -1 -10 4 -10 6 0 11 5 11 10 0 6 -2 10 -4 10 -3 0
-8 -4 -11 -10z"/>
<path d="M1568 2349 c26 -8 32 -14 27 -27 -5 -13 -3 -14 6 -5 20 20 3 43 -33
42 l-33 -1 33 -9z"/>
<path d="M850 2336 c0 -2 7 -7 16 -10 8 -3 12 -2 9 4 -6 10 -25 14 -25 6z"/>
<path d="M2320 2130 c0 -5 9 -8 20 -7 21 1 18 10 -5 13 -8 1 -15 -2 -15 -6z"/>
<path d="M505 2110 c-10 -11 -13 -20 -7 -20 7 0 12 5 12 11 0 7 10 9 24 7 17
-4 23 -1 19 9 -7 19 -27 16 -48 -7z"/>
<path d="M2330 2079 c0 -5 5 -7 10 -4 6 3 10 8 10 11 0 2 -4 4 -10 4 -5 0 -10
-5 -10 -11z"/>
<path d="M2333 2062 c-20 -7 -21 -9 -8 -47 8 -22 19 -41 25 -43 5 -2 10 -11
11 -20 1 -10 4 -6 8 8 6 20 3 26 -13 32 -17 5 -18 6 -3 7 9 1 17 8 17 17 0 10
-6 14 -15 10 -18 -7 -20 15 -3 32 13 13 13 13 -19 4z"/>
<path d="M2227 2020 c-3 -11 -1 -23 4 -26 5 -3 9 6 9 20 0 31 -6 34 -13 6z"/>
<path d="M196 1892 c-18 -37 -21 -82 -6 -82 6 0 8 -11 4 -25 -5 -20 -2 -25 20
-31 14 -3 34 -3 43 1 10 5 25 9 33 9 9 1 14 9 12 21 -2 11 -3 27 -2 35 4 54 1
69 -17 87 -31 31 -68 25 -87 -15z"/>
<path d="M2372 1910 c0 -14 2 -19 5 -12 2 6 2 18 0 25 -3 6 -5 1 -5 -13z"/>
<path d="M2375 1820 c-3 -5 -1 -18 4 -27 9 -16 10 -14 11 10 0 28 -5 34 -15
17z"/>
<path d="M160 1597 c-18 -14 -14 -55 7 -79 20 -22 37 -23 57 -3 13 13 13 18
-1 45 -18 38 -43 52 -63 37z"/>
<path d="M2375 1570 c-3 -5 1 -10 9 -10 9 0 16 5 16 10 0 6 -4 10 -9 10 -6 0
-13 -4 -16 -10z"/>
<path d="M2450 1321 c0 -6 5 -13 10 -16 6 -3 10 1 10 9 0 9 -4 16 -10 16 -5 0
-10 -4 -10 -9z"/>
<path d="M191 1246 c-16 -19 -11 -29 8 -17 7 5 12 14 9 21 -3 9 -8 7 -17 -4z"/>
<path d="M235 1170 c8 -13 -14 -42 -25 -35 -5 3 -11 1 -15 -5 -3 -6 4 -14 17
-19 19 -7 24 -5 30 13 10 33 9 56 -3 56 -5 0 -7 -5 -4 -10z"/>
<path d="M185 1080 c3 -5 8 -10 11 -10 2 0 4 5 4 10 0 6 -5 10 -11 10 -5 0 -7
-4 -4 -10z"/>
<path d="M228 1050 c2 -16 6 -30 8 -30 2 0 4 14 4 30 0 17 -4 30 -8 30 -5 0
-7 -13 -4 -30z"/>
<path d="M315 740 c3 -5 8 -10 11 -10 2 0 4 5 4 10 0 6 -5 10 -11 10 -5 0 -7
-4 -4 -10z"/>
<path d="M290 725 c0 -8 4 -15 10 -15 5 0 7 7 4 15 -4 8 -8 15 -10 15 -2 0 -4
-7 -4 -15z"/>
<path d="M293 682 c0 -11 9 -17 24 -17 28 0 28 -1 -1 19 -23 14 -25 14 -23 -2z"/>
<path d="M367 626 c-6 -15 1 -26 15 -26 11 0 10 27 -1 34 -5 3 -11 0 -14 -8z"/>
<path d="M267 603 c-4 -3 -7 -11 -7 -17 0 -6 5 -5 12 2 6 6 9 14 7 17 -3 3 -9
2 -12 -2z"/>
<path d="M375 570 c-3 -5 -2 -10 4 -10 5 0 13 5 16 10 3 6 2 10 -4 10 -5 0
-13 -4 -16 -10z"/>
<path d="M366 498 c-5 -18 -3 -34 7 -48 21 -30 27 -13 12 35 -12 39 -12 40
-19 13z"/>
<path d="M506 487 c3 -10 9 -15 12 -12 3 3 0 11 -7 18 -10 9 -11 8 -5 -6z"/>
<path d="M362 420 c0 -14 2 -19 5 -12 2 6 2 18 0 25 -3 6 -5 1 -5 -13z"/>
<path d="M434 426 c-18 -14 -18 -15 4 -13 12 1 22 7 22 14 0 16 -2 16 -26 -1z"/>
<path d="M545 420 c3 -5 8 -10 11 -10 2 0 4 5 4 10 0 6 -5 10 -11 10 -5 0 -7
-4 -4 -10z"/>
<path d="M390 409 c0 -5 5 -7 10 -4 6 3 10 8 10 11 0 2 -4 4 -10 4 -5 0 -10
-5 -10 -11z"/>
<path d="M1791 364 c0 -11 3 -14 6 -6 3 7 2 16 -1 19 -3 4 -6 -2 -5 -13z"/>
<path d="M2050 331 c-13 -26 -13 -31 5 -31 8 0 15 -4 15 -10 0 -16 47 -11 54
5 6 18 -27 55 -49 55 -8 0 -19 -9 -25 -19z"/>
<path d="M610 332 c0 -6 14 -23 30 -39 17 -15 30 -34 30 -40 0 -7 6 -13 14
-13 8 0 18 -9 21 -20 3 -11 11 -20 16 -20 6 0 7 -4 4 -10 -3 -6 -1 -10 5 -10
7 0 23 -9 37 -20 52 -41 53 -18 2 30 -29 28 -55 50 -58 50 -2 0 -26 23 -53 51
-26 28 -48 46 -48 41z"/>
<path d="M1750 330 c0 -5 5 -10 10 -10 6 0 10 5 10 10 0 6 -4 10 -10 10 -5 0
-10 -4 -10 -10z"/>
<path d="M1332 253 c-6 -3 -10 -9 -7 -14 3 -5 0 -19 -6 -31 -15 -28 -19 -58
-7 -58 4 0 8 -5 8 -11 0 -5 -5 -7 -12 -3 -6 4 -8 3 -5 -3 4 -6 20 -13 37 -15
22 -3 35 1 49 18 22 25 36 100 21 109 -13 8 -63 13 -78 8z"/>
<path d="M882 218 c2 -6 10 -14 16 -16 7 -2 10 2 6 12 -7 18 -28 22 -22 4z"/>
<path d="M1220 169 c0 -5 5 -7 10 -4 6 3 10 8 10 11 0 2 -4 4 -10 4 -5 0 -10
-5 -10 -11z"/>
<path d="M960 135 c0 -12 36 -35 56 -35 14 0 0 18 -26 33 -27 16 -30 16 -30 2z"/>
<path d="M1056 125 c-10 -15 -15 -32 -12 -38 2 -7 5 -4 5 6 1 9 5 17 10 17 9
0 24 30 18 37 -3 2 -12 -8 -21 -22z"/>
<path d="M835 120 c3 -5 8 -10 11 -10 2 0 4 5 4 10 0 6 -5 10 -11 10 -5 0 -7
-4 -4 -10z"/>
<path d="M1016 77 c3 -10 9 -15 12 -12 3 3 0 11 -7 18 -10 9 -11 8 -5 -6z"/>
</g>
</svg>
