<?xml version="1.0" standalone="no"?>
<!DOCTYPE svg PUBLIC "-//W3C//DTD SVG 20010904//EN"
 "http://www.w3.org/TR/2001/REC-SVG-20010904/DTD/svg10.dtd">
<svg version="1.0" xmlns="http://www.w3.org/2000/svg"
 width="400.000000pt" height="400.000000pt" viewBox="0 0 400.000000 400.000000"
 preserveAspectRatio="xMidYMid meet">

<g transform="translate(0.000000,400.000000) scale(0.100000,-0.100000)"
fill="#000000" stroke="none">
<path d="M1695 3860 c-3 -5 1 -10 9 -10 8 0 18 -4 21 -10 3 -6 -17 -10 -52
-10 -98 0 -95 1 -88 -20 5 -15 -6 -28 -44 -56 -46 -33 -51 -39 -51 -75 0 -41
18 -54 27 -19 3 11 13 20 22 20 9 0 35 10 58 22 48 26 58 22 40 -15 -9 -19
-18 -25 -32 -21 -14 3 -23 -3 -32 -22 -11 -23 -10 -25 5 -19 53 20 74 18 98
-11 13 -16 23 -34 24 -40 0 -16 -80 -134 -91 -134 -5 0 -42 33 -82 73 -106
104 -108 105 -142 94 -17 -6 -41 -18 -54 -28 -23 -19 -24 -18 -57 2 -38 23
-88 19 -139 -12 -33 -20 -98 -87 -123 -129 -8 -14 -26 -42 -39 -62 -17 -24
-23 -44 -18 -57 5 -16 2 -21 -13 -21 -11 0 -25 -7 -32 -15 -7 -8 -18 -15 -25
-15 -8 0 -22 -12 -33 -26 -22 -31 -52 -29 -92 6 -32 28 -54 25 -89 -12 -39
-41 -41 -61 -3 -25 25 24 62 37 62 21 0 -4 -10 -23 -22 -42 -15 -25 -18 -37
-10 -40 7 -2 12 -8 12 -13 0 -11 -31 -43 -55 -56 -12 -7 -18 -27 -21 -68 -2
-38 -9 -62 -20 -69 -12 -9 -14 -21 -9 -47 19 -94 19 -99 -5 -99 -20 0 -21 3
-15 41 5 29 4 39 -4 35 -6 -4 -13 -29 -17 -57 -5 -34 -13 -53 -25 -60 -11 -5
-19 -21 -19 -35 0 -14 4 -23 9 -19 5 3 12 1 15 -4 4 -5 -4 -11 -16 -13 -30 -4
-36 -29 -6 -26 15 2 23 -2 23 -12 0 -10 -9 -14 -27 -13 -15 1 -29 -5 -32 -13
-3 -8 -1 -14 3 -14 5 0 12 -7 15 -16 5 -12 2 -15 -12 -12 -22 6 -41 -26 -68
-111 -14 -43 -15 -60 -6 -84 9 -23 9 -34 -1 -45 -10 -12 -12 -11 -17 7 -3 12
-9 23 -14 24 -13 3 -26 -52 -15 -59 6 -4 6 -11 -1 -19 -6 -7 -15 -27 -20 -44
-7 -27 -6 -31 11 -31 10 0 19 -7 19 -15 0 -8 -9 -15 -20 -15 -23 0 -43 -40
-34 -65 8 -19 34 -20 34 0 0 8 5 15 10 15 12 0 13 -17 1 -24 -4 -3 -6 -18 -3
-33 l5 -28 -22 19 c-21 19 -22 19 -36 0 -8 -10 -15 -25 -15 -31 0 -17 17 -17
23 0 3 9 8 9 21 -2 15 -12 16 -24 11 -75 -4 -34 -11 -66 -16 -72 -11 -13 9
-34 33 -34 20 0 24 -16 6 -23 -10 -4 -10 -7 -1 -18 11 -11 13 -11 13 2 0 12 1
12 9 0 6 -9 6 -22 0 -32 -6 -12 -5 -19 3 -21 8 -3 8 -9 -1 -25 -15 -29 -14
-43 4 -43 19 0 20 -36 1 -43 -13 -5 -13 -10 0 -36 9 -17 20 -31 25 -31 5 0 9
-5 9 -11 0 -6 -7 -9 -15 -6 -8 4 -17 2 -20 -4 -4 -5 -11 -6 -17 -3 -7 4 -8
-19 -3 -71 7 -70 6 -77 -9 -72 -18 7 -23 -22 -7 -39 15 -14 17 -80 3 -96 -6
-8 -9 -17 -6 -21 11 -11 22 -77 13 -77 -5 0 -9 -11 -9 -24 0 -13 -6 -27 -12
-29 -10 -4 -10 -7 0 -14 7 -5 14 -32 16 -59 5 -60 14 -84 32 -84 12 0 13 17 9
94 -5 77 -3 96 10 109 14 14 14 17 -1 25 -11 6 -15 17 -11 32 3 12 2 32 -3 45
-11 30 -2 65 17 65 12 0 14 8 9 35 -4 19 -3 35 2 35 5 0 12 -17 16 -37 9 -57
8 -63 -10 -56 -14 5 -16 2 -10 -23 4 -16 15 -36 25 -44 10 -9 21 -29 25 -45 3
-17 8 -37 10 -45 3 -8 5 -19 5 -23 1 -5 6 -5 12 -2 6 4 8 13 5 21 -3 8 -2 14
2 14 8 -1 62 -77 62 -88 0 -5 15 -25 34 -46 20 -21 32 -44 29 -52 -3 -9 2 -14
15 -14 27 0 39 -36 19 -58 -16 -20 -16 -74 1 -80 7 -2 12 3 12 12 0 22 18 29
35 13 8 -8 25 -12 39 -10 20 4 25 1 28 -18 2 -18 9 -23 26 -22 19 2 21 -1 17
-20 -5 -19 10 -40 87 -118 51 -52 104 -105 118 -116 31 -27 52 -51 65 -77 10
-18 78 -43 136 -50 14 -1 31 -6 38 -10 14 -9 120 -15 139 -8 6 2 12 10 12 18
0 8 9 14 19 14 11 0 21 6 24 13 6 16 45 -24 39 -41 -2 -6 1 -12 7 -12 6 0 11
7 11 15 0 19 14 19 30 0 11 -13 15 -13 22 -3 6 9 7 6 3 -8 -3 -13 1 -26 10
-34 8 -7 15 -21 15 -31 0 -16 5 -18 25 -13 14 4 38 7 53 8 15 0 43 12 62 26
22 15 45 23 65 22 l30 -3 -24 19 c-29 24 -19 31 39 27 33 -2 50 2 66 16 17 16
24 17 52 7 18 -7 32 -16 32 -20 0 -4 7 -8 15 -8 9 0 15 9 15 24 0 23 2 23 82
21 59 -2 86 2 96 12 37 37 83 64 103 61 32 -4 35 -26 5 -38 -14 -5 -26 -14
-26 -21 0 -13 52 -3 92 17 35 18 68 18 94 0 43 -30 117 19 126 84 1 14 10 25
18 25 8 1 34 7 58 14 31 8 47 9 56 2 9 -8 22 -6 45 5 41 21 61 12 61 -26 0
-25 4 -30 24 -30 15 0 26 7 29 20 3 13 0 20 -10 20 -23 0 -8 49 22 72 21 16
23 22 13 38 -10 15 -10 22 0 32 22 22 35 -4 23 -47 -8 -30 -7 -42 5 -61 15
-22 14 -25 -11 -59 -20 -25 -28 -49 -30 -85 -2 -27 0 -49 4 -48 26 3 33 -4 27
-27 -5 -20 -2 -26 19 -31 14 -3 32 -3 41 0 10 4 22 -1 30 -11 12 -17 15 -15
41 17 15 19 39 47 53 61 14 15 24 32 22 39 -2 6 2 23 9 37 12 22 11 26 -4 35
-16 9 -16 11 3 38 23 33 26 50 6 50 -7 0 -34 11 -59 24 -39 21 -47 23 -58 10
-8 -9 -16 -11 -23 -5 -7 6 -22 8 -34 4 -32 -8 -27 5 16 43 20 18 31 33 25 34
-20 0 -15 20 4 20 15 0 14 2 -3 15 -19 15 -19 15 0 30 20 15 65 11 77 -7 4 -6
16 4 29 22 22 31 21 55 -2 32 -7 -7 -20 -12 -30 -12 -17 0 -17 2 3 30 28 37
73 48 99 25 18 -16 19 -16 32 4 14 24 43 29 35 7 -7 -18 6 -23 49 -18 37 5 31
17 -18 39 -32 14 -36 30 -10 36 9 2 5 3 -10 1 -15 -2 -30 1 -34 7 -9 15 -1 20
37 23 19 2 42 6 52 11 21 9 23 29 2 21 -24 -9 -18 32 10 66 14 16 25 36 25 44
0 8 5 14 10 14 15 0 12 17 -6 35 -9 9 -13 19 -10 23 4 3 11 0 15 -7 13 -20 36
-8 36 20 0 16 5 24 17 23 11 -1 19 9 24 30 7 32 47 92 75 113 9 7 20 29 23 48
4 20 14 39 22 42 17 6 19 46 2 41 -7 -3 -18 -15 -24 -27 -7 -13 -17 -28 -24
-34 -13 -13 13 42 38 81 11 18 17 20 23 10 7 -10 15 -6 34 17 13 17 24 35 25
42 0 6 6 24 14 40 30 61 46 105 46 128 0 14 9 30 20 37 22 14 26 34 9 40 -8 3
-9 10 -2 23 8 17 28 96 59 243 8 37 34 27 34 -13 0 -19 5 -35 10 -35 12 0 12
3 14 70 1 49 -6 64 -18 35 -3 -8 -12 -15 -21 -15 -12 0 -15 13 -15 60 0 51 3
60 18 60 10 0 23 -5 30 -12 9 -9 12 -8 12 4 0 25 -14 29 -86 30 -47 0 -67 4
-71 14 -3 8 -13 13 -22 12 -12 -2 -16 5 -14 32 1 40 30 176 39 192 17 27 14
168 -4 168 -4 0 -7 -24 -8 -53 -1 -72 -12 -113 -27 -98 -19 19 -27 12 -21 -18
4 -16 1 -32 -5 -35 -7 -5 -11 9 -12 41 -1 26 -2 111 -4 188 -2 139 -20 307
-35 334 -4 8 -3 28 2 43 8 21 7 33 -1 41 -16 16 -14 40 4 34 22 -9 27 8 10 39
-9 18 -12 42 -9 65 5 30 2 39 -17 52 -12 9 -25 14 -28 10 -3 -3 0 -8 7 -10 6
-3 12 -14 12 -26 0 -21 -1 -21 -25 5 -14 15 -25 31 -25 35 0 5 -13 17 -30 26
-16 10 -30 24 -30 30 0 7 -7 4 -14 -5 -15 -20 -39 -23 -112 -13 -49 7 -52 6
-74 -24 -12 -18 -20 -35 -17 -37 10 -10 47 7 47 22 0 8 10 14 23 14 27 0 54
-16 44 -27 -4 -4 -17 -1 -28 6 -24 14 -34 9 -26 -13 3 -8 23 -18 44 -22 76
-14 89 -34 31 -48 -21 -5 -28 -3 -28 9 0 16 -10 17 -49 6 -25 -7 -24 -7 13
-29 21 -13 53 -29 71 -36 19 -8 38 -26 46 -45 8 -17 20 -31 26 -31 13 0 18
-18 14 -57 -1 -13 3 -23 9 -23 5 0 10 18 10 41 0 61 26 35 46 -47 6 -23 4 -25
-27 -23 -19 1 -41 -1 -50 -5 -20 -9 -77 37 -90 71 -10 28 -43 30 -134 9 -33
-8 -63 -12 -68 -9 -4 2 -5 48 -2 101 3 53 5 104 5 112 -1 8 -2 29 -2 47 -2 33
-18 44 -103 69 -20 6 -32 18 -36 34 -11 47 -21 70 -31 70 -5 0 -22 9 -37 21
-39 29 -157 34 -274 11 -67 -13 -91 -23 -99 -37 -16 -30 -17 -30 -31 -12 -8
11 -35 18 -82 23 -81 7 -95 19 -95 79 0 23 -5 46 -12 53 -15 15 -132 17 -123
2 4 -6 21 -8 38 -5 35 7 75 -14 63 -33 -4 -7 -22 -12 -39 -12 -41 0 -56 -10
-54 -35 1 -13 -3 -19 -13 -16 -8 2 -24 3 -35 3 -11 -1 -42 5 -69 13 -53 16
-71 14 -37 -5 28 -14 26 -28 -3 -42 -20 -8 -32 -7 -61 6 -20 10 -39 24 -41 31
-3 7 -19 19 -35 26 -20 8 -28 17 -25 26 4 8 6 21 6 29 0 8 9 14 20 14 11 0 20
7 20 14 0 15 -51 58 -82 69 -10 4 -18 11 -18 17 0 5 -13 10 -30 10 -16 0 -30
-4 -30 -10 0 -5 -13 -10 -28 -10 -20 0 -32 8 -45 30 -18 29 -50 40 -62 20z
m25 -91 c0 -7 -9 -9 -24 -5 -13 3 -26 2 -28 -2 -2 -5 -16 -12 -31 -16 -22 -5
-28 -4 -25 6 3 7 12 13 21 13 8 0 19 4 23 8 12 11 64 8 64 -4z m-160 -58 c0
-5 -9 -11 -21 -14 -16 -4 -18 -3 -8 9 13 16 29 19 29 5z m765 -71 c3 -5 -1
-10 -10 -10 -9 0 -13 5 -10 10 3 6 8 10 10 10 2 0 7 -4 10 -10z m-365 -44 c0
-8 -4 -18 -10 -21 -5 -3 -10 -4 -10 -1 0 2 -3 11 -6 20 -4 11 -1 16 10 16 9 0
16 -6 16 -14z m-42 -8 c8 -8 8 -17 1 -30 -11 -21 -31 -15 -22 7 3 8 0 15 -7
15 -6 0 -8 5 -5 10 8 13 18 13 33 -2z m802 -18 c0 -5 -4 -10 -10 -10 -5 0 -10
5 -10 10 0 6 5 10 10 10 6 0 10 -4 10 -10z m-590 -20 c0 -5 -2 -10 -4 -10 -3
0 -8 5 -11 10 -3 6 -1 10 4 10 6 0 11 -4 11 -10z m-700 -15 c7 -9 11 -18 8
-20 -9 -10 -38 7 -38 21 0 18 14 18 30 -1z m-190 -9 c0 -9 -30 -14 -35 -6 -4
6 3 10 14 10 12 0 21 -2 21 -4z m1725 -6 c3 -5 -1 -10 -9 -10 -9 0 -16 5 -16
10 0 6 4 10 9 10 6 0 13 -4 16 -10z m-760 -50 c3 -5 1 -10 -4 -10 -6 0 -11 5
-11 10 0 6 2 10 4 10 3 0 8 -4 11 -10z m-105 -40 c0 -5 -4 -10 -10 -10 -5 0
-10 -8 -10 -17 0 -13 -3 -14 -11 -6 -7 7 -9 19 -6 27 7 17 37 22 37 6z m750 1
c0 -11 -108 -27 -117 -17 -4 3 3 6 15 6 11 0 24 5 27 10 8 13 75 13 75 1z
m-1647 -62 c-10 -17 -24 -35 -30 -41 -22 -18 -15 16 8 46 28 36 44 33 22 -5z
m1917 -11 c0 -10 -5 -18 -10 -18 -15 0 -23 27 -16 47 6 15 8 15 16 3 6 -8 10
-23 10 -32z m336 17 c4 -8 13 -15 22 -15 21 0 52 -29 52 -49 -1 -13 -4 -12
-18 4 -9 11 -34 29 -54 38 -39 18 -50 37 -23 37 9 0 18 -7 21 -15z m-602 -21
c21 -20 20 -50 0 -58 -21 -8 -34 1 -28 18 8 20 -12 29 -33 16 -20 -13 -73 2
-73 20 0 13 13 13 26 0 8 -8 15 -6 24 5 16 20 64 19 84 -1z m-1573 -4 c10 -6
19 -20 19 -30 0 -22 -16 -27 -22 -8 -3 9 -11 8 -31 -5 -33 -22 -43 -7 -16 27
23 30 23 30 50 16z m1419 -31 c38 -20 52 -39 30 -39 -19 0 -90 40 -90 50 0 15
15 12 60 -11z m430 1 c0 -5 -4 -10 -10 -10 -5 0 -10 5 -10 10 0 6 5 10 10 10
6 0 10 -4 10 -10z m-502 -18 c3 -9 -2 -13 -14 -10 -9 1 -19 9 -22 16 -3 9 2
13 14 10 9 -1 19 -9 22 -16z m817 -22 c3 -5 -1 -10 -9 -10 -8 0 -18 5 -21 10
-3 6 1 10 9 10 8 0 18 -4 21 -10z m-2238 -6 c-3 -3 -12 -4 -19 -1 -8 3 -5 6 6
6 11 1 17 -2 13 -5z m2350 -46 c-3 -8 -6 -5 -6 6 -1 11 2 17 5 13 3 -3 4 -12
1 -19z m-2327 4 c0 -9 -54 -42 -69 -42 -6 0 -11 7 -11 15 0 9 9 15 24 15 14 0
28 5 31 10 7 12 25 13 25 2z m-498 -64 c-7 -7 -12 -8 -12 -2 0 14 12 26 19 19
2 -3 -1 -11 -7 -17z m423 -8 c-3 -5 -13 -10 -21 -10 -8 0 -14 5 -14 10 0 6 9
10 21 10 11 0 17 -4 14 -10z m2377 -130 c-2 -16 -8 -30 -12 -30 -5 0 -15 -3
-24 -6 -11 -4 -16 -1 -16 10 0 9 5 16 10 16 6 0 10 9 10 20 0 13 7 20 18 20
15 0 18 -6 14 -30z m41 -16 c9 -10 -4 -34 -19 -34 -8 0 -14 6 -14 13 0 22 19
35 33 21z m-2797 -33 c-9 -10 -16 -23 -16 -30 0 -6 -7 -25 -15 -41 -16 -32
-10 -41 19 -30 12 4 16 9 9 13 -13 8 12 67 27 67 18 0 18 -19 1 -90 -12 -49
-24 -77 -36 -84 -29 -16 -44 -38 -45 -63 0 -13 -4 -23 -10 -23 -5 0 -7 -20 -3
-48 4 -38 2 -51 -12 -62 -16 -14 -17 -13 -10 9 7 22 5 23 -16 18 -13 -4 -29
-7 -35 -7 -7 0 -11 -14 -10 -32 1 -25 -4 -35 -22 -43 -18 -8 -22 -15 -17 -33
4 -15 2 -21 -5 -17 -5 3 -13 -2 -16 -12 -17 -53 -39 -93 -51 -93 -7 0 -13 4
-13 9 0 11 26 74 56 135 13 28 24 56 24 63 0 13 41 110 65 155 8 14 15 31 15
38 0 22 89 212 103 222 20 12 29 -4 13 -21z m2820 -76 c3 -8 2 -20 -2 -27 -11
-16 -11 -19 -13 -69 -1 -36 -3 -40 -16 -29 -13 11 -15 7 -15 -25 0 -36 -1 -37
-27 -30 -36 9 -37 9 -29 40 4 14 13 25 22 25 8 0 12 5 9 10 -10 16 5 50 21 50
8 0 14 9 14 19 0 44 24 68 36 36z m-1809 -193 c10 -15 23 -36 29 -47 10 -17
19 -19 75 -16 87 6 201 5 277 -1 l64 -6 30 49 c16 27 33 49 36 49 28 -2 198
-51 281 -82 74 -27 86 -41 164 -188 107 -203 160 -378 176 -585 8 -103 2 -268
-10 -279 -60 -58 -424 -235 -443 -215 -20 20 -75 114 -78 131 -2 16 4 24 27
31 17 5 42 18 57 28 14 11 31 19 37 19 6 0 13 11 17 25 4 17 13 25 28 25 13 0
25 3 29 6 3 3 40 8 81 9 71 4 116 16 116 33 0 4 -43 36 -95 70 -67 45 -95 69
-95 83 0 11 7 22 15 25 8 4 15 10 15 15 0 20 24 35 50 31 25 -3 100 32 100 47
0 12 -23 31 -37 31 -12 0 -21 6 -70 49 -12 11 -23 17 -26 15 -2 -3 -12 7 -21
21 -10 15 -26 25 -41 25 -13 0 -27 5 -30 10 -3 6 -15 10 -25 10 -23 0 -80 47
-80 66 0 33 -115 116 -148 107 -17 -4 -23 1 -28 21 -8 35 -92 100 -109 86 -9
-8 -14 -4 -19 15 -5 18 -13 25 -32 25 -13 0 -36 7 -49 16 -14 9 -29 12 -37 8
-7 -5 -19 -9 -26 -10 -8 -2 -16 -4 -18 -7 -7 -7 94 -95 116 -102 11 -3 20 -11
20 -16 0 -5 5 -9 11 -9 7 0 25 -13 41 -30 15 -16 34 -30 42 -30 7 0 24 -11 38
-24 14 -12 33 -26 42 -29 20 -8 21 -31 2 -46 -20 -17 -113 -23 -139 -10 -12 7
-61 40 -108 75 -48 34 -109 73 -135 85 -27 13 -65 33 -84 44 -19 12 -49 24
-66 27 -26 3 -30 1 -27 -13 3 -10 13 -26 24 -38 10 -11 19 -25 19 -31 0 -5 6
-10 13 -10 12 0 59 -61 70 -93 4 -9 19 -22 34 -28 41 -15 93 -52 93 -66 0 -15
32 -33 59 -33 11 0 31 -11 45 -25 14 -14 31 -25 38 -25 16 0 48 -35 48 -53 0
-6 9 -36 21 -66 16 -43 18 -56 7 -62 -7 -5 -16 -9 -20 -9 -9 0 -36 28 -55 57
-9 14 -22 22 -30 19 -9 -4 -19 5 -27 26 -9 21 -15 26 -19 17 -4 -10 -14 -4
-34 21 -33 41 -115 120 -125 120 -4 0 -28 14 -54 32 -39 26 -57 31 -107 32
-58 1 -60 0 -98 -43 -89 -100 -68 -228 48 -287 51 -26 52 -26 95 -10 52 21 82
48 99 87 10 27 13 28 28 15 9 -8 19 -14 22 -13 10 3 61 -35 99 -74 19 -19 52
-44 74 -55 91 -46 121 -69 144 -110 6 -11 28 -28 49 -39 21 -11 39 -27 41 -36
4 -19 -11 -23 -178 -46 -98 -14 -130 -14 -215 -4 -121 15 -198 33 -288 65
-112 41 -137 10 -33 -42 73 -36 75 -44 25 -120 -16 -24 -29 -47 -29 -53 0 -13
-34 -11 -72 5 -18 8 -51 22 -73 31 -66 27 -207 100 -249 129 -21 14 -42 26
-47 26 -5 0 -13 17 -19 38 -20 64 2 424 30 502 4 14 18 58 30 99 19 62 78 198
110 251 5 8 25 42 44 76 40 69 46 75 101 93 22 7 54 19 70 26 31 13 201 62
222 64 6 0 20 -11 30 -27z m1796 -2 c-3 -11 -9 -20 -14 -20 -10 0 -12 33 -3
43 12 12 22 -3 17 -23z m-3089 -177 c-10 -48 -13 -53 -29 -53 -20 0 -19 35 3
59 24 27 33 25 26 -6z m3177 -20 c-10 -17 -10 -16 -11 3 0 23 13 41 18 25 2
-6 -1 -18 -7 -28z m-3197 -60 c9 -24 -9 -39 -29 -23 -12 10 -13 16 -4 26 15
19 25 18 33 -3z m-84 -185 c0 -18 -2 -20 -9 -8 -6 8 -7 18 -5 22 9 14 14 9 14
-14z m3360 -45 c0 -22 -2 -25 -10 -13 -13 20 -13 40 0 40 6 0 10 -12 10 -27z
m-97 -209 c4 -4 0 -19 -8 -33 -7 -14 -16 -38 -20 -53 -6 -31 -35 -39 -35 -10
1 24 37 102 48 102 5 0 12 -3 15 -6z m-1203 -228 c0 -16 -34 -31 -50 -21 -22
14 -10 35 20 35 19 0 30 -5 30 -14z m-130 -6 c0 -5 -4 -10 -10 -10 -5 0 -10 5
-10 10 0 6 5 10 10 10 6 0 10 -4 10 -10z m94 -84 c-4 -12 0 -16 15 -16 12 0
21 -6 21 -15 0 -19 -28 -8 -57 23 -17 18 -19 27 -10 36 15 17 40 -5 31 -28z
m1246 20 c0 -8 -4 -18 -10 -21 -5 -3 -10 3 -10 14 0 12 5 21 10 21 6 0 10 -6
10 -14z m-3236 -174 c3 -5 2 -21 -2 -36 -7 -25 -9 -26 -21 -13 -7 9 -10 25 -6
37 7 21 20 26 29 12z m3090 -104 c-10 -18 -19 -27 -22 -20 -4 14 26 67 35 59
2 -3 -3 -20 -13 -39z m-40 -63 c-6 -16 -24 -21 -24 -7 0 11 11 22 21 22 5 0 6
-7 3 -15z m-37 -52 c-15 -16 -17 -16 -17 -1 0 9 6 18 13 21 20 7 22 -2 4 -20z
m-374 -128 c-3 -9 -8 -14 -10 -11 -3 3 -2 9 2 15 9 16 15 13 8 -4z m267 -42
c-1 -16 -39 -57 -46 -50 -10 10 17 57 33 57 7 0 13 -3 13 -7z m-54 -100 c-10
-10 -19 5 -10 18 6 11 8 11 12 0 2 -7 1 -15 -2 -18z m-57 -64 c-20 -13 -29
-11 -29 5 0 16 33 27 39 13 2 -5 -3 -13 -10 -18z m-189 -123 c0 -15 -37 -32
-47 -22 -9 8 17 36 33 36 8 0 14 -6 14 -14z m-2142 -114 c2 -7 -2 -10 -12 -6
-9 3 -16 11 -16 16 0 13 23 5 28 -10z m1851 -79 c1 -7 -11 -11 -29 -10 -36 2
-39 19 -7 40 20 13 23 13 29 -2 4 -9 7 -21 7 -28z"/>
<path d="M693 2780 c-3 -11 -9 -20 -14 -20 -5 0 -9 -7 -9 -15 0 -26 15 -16 32
20 8 19 11 35 6 35 -5 0 -12 -9 -15 -20z"/>
<path d="M655 2700 c-3 -5 -1 -10 4 -10 6 0 11 5 11 10 0 6 -2 10 -4 10 -3 0
-8 -4 -11 -10z"/>
<path d="M2280 2320 c0 -5 5 -10 11 -10 5 0 7 5 4 10 -3 6 -8 10 -11 10 -2 0
-4 -4 -4 -10z"/>
<path d="M1780 3849 c0 -5 5 -7 10 -4 6 3 10 8 10 11 0 2 -4 4 -10 4 -5 0 -10
-5 -10 -11z"/>
<path d="M2005 3710 c3 -5 8 -10 11 -10 2 0 4 5 4 10 0 6 -5 10 -11 10 -5 0
-7 -4 -4 -10z"/>
<path d="M2048 3678 c12 -12 24 -19 28 -15 10 10 -16 37 -34 37 -13 0 -12 -4
6 -22z"/>
<path d="M2425 3675 c6 -2 22 -6 38 -9 18 -4 27 -13 27 -26 0 -23 18 -27 26
-5 10 26 -16 45 -60 44 -22 0 -36 -2 -31 -4z"/>
<path d="M1275 3650 c-7 -12 2 -12 30 0 19 8 19 9 -2 9 -12 1 -25 -3 -28 -9z"/>
<path d="M1340 3646 c0 -2 7 -7 16 -10 8 -3 12 -2 9 4 -6 10 -25 14 -25 6z"/>
<path d="M1455 3630 c-3 -5 -1 -10 4 -10 6 0 11 5 11 10 0 6 -2 10 -4 10 -3 0
-8 -4 -11 -10z"/>
<path d="M1235 3620 c-3 -5 -1 -10 4 -10 6 0 11 5 11 10 0 6 -2 10 -4 10 -3 0
-8 -4 -11 -10z"/>
<path d="M3038 3573 c6 -2 18 -2 25 0 6 3 1 5 -13 5 -14 0 -19 -2 -12 -5z"/>
<path d="M3080 3572 c0 -5 11 -14 25 -20 16 -8 28 -23 31 -42 4 -16 10 -30 15
-30 12 0 11 5 -5 45 -16 37 -66 73 -66 47z"/>
<path d="M3205 3410 c-3 -5 -1 -10 4 -10 6 0 11 5 11 10 0 6 -2 10 -4 10 -3 0
-8 -4 -11 -10z"/>
<path d="M3205 3350 c3 -5 8 -10 11 -10 2 0 4 5 4 10 0 6 -5 10 -11 10 -5 0
-7 -4 -4 -10z"/>
<path d="M3626 3331 c-4 -5 -2 -12 3 -15 5 -4 12 -2 15 3 4 5 2 12 -3 15 -5 4
-12 2 -15 -3z"/>
<path d="M795 3300 c-16 -16 -24 -30 -18 -30 6 0 16 7 24 16 9 11 22 14 41 10
30 -6 36 2 16 22 -18 18 -32 15 -63 -18z"/>
<path d="M3647 3263 c-4 -3 -7 -11 -7 -17 0 -6 5 -5 12 2 6 6 9 14 7 17 -3 3
-9 2 -12 -2z"/>
<path d="M3610 3214 c0 -2 4 -12 9 -22 6 -9 12 -30 16 -45 7 -33 50 -81 65
-72 20 12 10 35 -15 35 -14 0 -25 4 -25 9 0 5 9 7 20 4 17 -5 20 0 20 27 0 25
-3 31 -16 26 -26 -10 -37 4 -19 24 15 17 14 18 -19 18 -20 0 -36 -2 -36 -4z"/>
<path d="M3691 3044 c0 -11 3 -14 6 -6 3 7 2 16 -1 19 -3 4 -6 -2 -5 -13z"/>
<path d="M308 2957 c-28 -67 -33 -123 -11 -132 10 -3 13 -14 8 -34 -7 -34 1
-41 57 -51 26 -5 41 -3 48 5 6 7 18 11 28 9 9 -2 24 0 32 5 12 8 12 15 2 45
-9 26 -10 41 -3 55 14 25 14 68 1 76 -5 3 -7 12 -4 19 3 8 -4 16 -15 19 -13 3
-21 13 -21 26 0 23 -20 27 -51 10 -14 -7 -24 -7 -33 0 -9 8 -18 -5 -38 -52z"/>
<path d="M3700 2991 c0 -17 5 -31 10 -31 6 0 10 11 10 24 0 14 -4 28 -10 31
-6 4 -10 -7 -10 -24z"/>
<path d="M3705 2920 c-3 -5 -1 -10 4 -10 6 0 11 5 11 10 0 6 -2 10 -4 10 -3 0
-8 -4 -11 -10z"/>
<path d="M3707 2836 c-3 -8 1 -22 8 -33 13 -17 14 -16 15 15 0 33 -13 43 -23
18z"/>
<path d="M3670 2750 c0 -5 5 -10 11 -10 5 0 7 5 4 10 -3 6 -8 10 -11 10 -2 0
-4 -4 -4 -10z"/>
<path d="M3660 2710 c0 -5 5 -10 10 -10 6 0 10 5 10 10 0 6 -4 10 -10 10 -5 0
-10 -4 -10 -10z"/>
<path d="M245 2494 c-43 -32 3 -144 60 -144 42 0 76 48 49 70 -8 7 -14 21 -14
30 0 19 -44 60 -64 60 -6 0 -20 -7 -31 -16z"/>
<path d="M3716 2454 c-4 -9 -4 -19 -1 -22 6 -6 35 18 35 29 0 16 -28 10 -34
-7z"/>
<path d="M3835 2070 c-8 -13 4 -32 16 -25 12 8 12 35 0 35 -6 0 -13 -4 -16
-10z"/>
<path d="M303 1950 c-36 -33 -27 -55 11 -27 10 7 17 21 15 31 -4 16 -6 15 -26
-4z"/>
<path d="M353 1785 c-3 -9 -15 -15 -26 -13 -34 5 -29 -16 8 -36 19 -11 37 -17
39 -15 2 2 6 21 9 42 4 28 2 37 -9 37 -8 0 -17 -7 -21 -15z"/>
<path d="M290 1691 c0 -6 5 -13 10 -16 6 -3 10 1 10 9 0 9 -4 16 -10 16 -5 0
-10 -4 -10 -9z"/>
<path d="M354 1674 c3 -9 6 -21 6 -27 0 -8 3 -8 11 0 13 13 5 43 -12 43 -6 0
-8 -7 -5 -16z"/>
<path d="M360 1616 c0 -9 5 -16 10 -16 6 0 10 4 10 9 0 6 -4 13 -10 16 -5 3
-10 -1 -10 -9z"/>
<path d="M451 1153 c0 -4 4 -17 9 -28 8 -19 9 -19 9 2 1 12 -3 25 -9 28 -5 3
-10 3 -9 -2z"/>
<path d="M460 1067 c0 -9 6 -17 14 -17 8 0 21 -3 30 -6 9 -3 16 -1 16 5 0 6
-8 11 -18 11 -10 0 -23 5 -30 12 -9 9 -12 8 -12 -5z"/>
<path d="M573 974 c-8 -21 13 -42 28 -27 13 13 5 43 -11 43 -6 0 -13 -7 -17
-16z"/>
<path d="M500 944 c0 -8 5 -12 10 -9 6 4 8 11 5 16 -9 14 -15 11 -15 -7z"/>
<path d="M410 924 c0 -14 3 -14 15 -4 8 7 15 14 15 16 0 2 -7 4 -15 4 -8 0
-15 -7 -15 -16z"/>
<path d="M595 889 c-4 -6 -5 -12 -2 -15 2 -3 7 2 10 11 7 17 1 20 -8 4z"/>
<path d="M605 850 c3 -5 8 -10 11 -10 2 0 4 5 4 10 0 6 -5 10 -11 10 -5 0 -7
-4 -4 -10z"/>
<path d="M577 799 c-4 -13 -7 -33 -7 -45 0 -28 23 -75 35 -70 13 4 8 49 -9
100 -12 35 -14 36 -19 15z"/>
<path d="M820 710 c0 -5 5 -10 10 -10 6 0 10 5 10 10 0 6 -4 10 -10 10 -5 0
-10 -4 -10 -10z"/>
<path d="M568 660 c-7 -24 -3 -38 8 -28 3 4 4 17 2 30 l-3 23 -7 -25z"/>
<path d="M671 664 c-15 -18 -6 -33 10 -17 6 6 18 9 25 6 8 -3 14 1 14 11 0 20
-31 20 -49 0z"/>
<path d="M852 658 c2 -6 10 -14 16 -16 7 -2 10 2 6 12 -7 18 -28 22 -22 4z"/>
<path d="M610 639 c0 -18 2 -19 15 -9 8 7 15 16 15 21 0 5 -7 9 -15 9 -9 0
-15 -9 -15 -21z"/>
<path d="M2796 565 c-3 -8 -1 -15 4 -15 6 0 10 7 10 15 0 8 -2 15 -4 15 -2 0
-6 -7 -10 -15z"/>
<path d="M3213 538 c-19 -24 -25 -68 -9 -68 7 0 19 -6 25 -14 7 -8 24 -17 38
-21 21 -5 31 -1 44 16 15 20 15 24 0 50 -9 16 -29 33 -45 39 -37 13 -41 13
-53 -2z"/>
<path d="M960 509 c15 -29 70 -82 78 -75 5 6 -65 88 -81 95 -5 2 -3 -7 3 -20z"/>
<path d="M2737 523 c-12 -11 -8 -23 8 -23 8 0 15 7 15 15 0 16 -12 20 -23 8z"/>
<path d="M2910 430 c0 -5 5 -10 11 -10 5 0 7 5 4 10 -3 6 -8 10 -11 10 -2 0
-4 -4 -4 -10z"/>
<path d="M1900 410 c0 -5 5 -10 10 -10 6 0 10 5 10 10 0 6 -4 10 -10 10 -5 0
-10 -4 -10 -10z"/>
<path d="M1050 398 c1 -7 15 -22 33 -34 18 -11 31 -26 29 -33 -1 -6 5 -14 13
-17 8 -4 15 -12 15 -20 0 -8 7 -14 15 -14 8 0 28 -13 45 -30 29 -28 70 -41 70
-21 0 5 -24 28 -54 52 -30 24 -60 54 -67 67 -7 12 -17 22 -22 22 -5 0 -20 9
-34 20 -29 23 -43 25 -43 8z"/>
<path d="M2110 400 c-29 -4 -35 -9 -36 -30 -1 -14 -7 -37 -15 -50 -15 -28 -21
-90 -8 -90 5 0 9 -9 9 -20 0 -15 7 -20 29 -20 17 0 33 -5 36 -11 7 -11 80 67
80 86 0 5 4 16 9 23 5 8 4 18 -2 24 -8 8 -8 17 -1 31 8 14 7 22 -3 31 -24 22
-62 32 -98 26z"/>
<path d="M1382 339 c2 -7 10 -15 17 -17 8 -3 12 1 9 9 -2 7 -10 15 -17 17 -8
3 -12 -1 -9 -9z"/>
<path d="M1500 217 c0 -19 30 -44 61 -52 48 -12 41 14 -11 40 -36 18 -50 22
-50 12z"/>
<path d="M1655 219 c-10 -15 1 -23 20 -15 9 3 13 10 10 16 -8 13 -22 13 -30
-1z"/>
<path d="M1305 201 c-3 -5 -1 -12 5 -16 5 -3 10 1 10 9 0 18 -6 21 -15 7z"/>
<path d="M1650 179 c0 -5 5 -7 10 -4 6 3 10 8 10 11 0 2 -4 4 -10 4 -5 0 -10
-5 -10 -11z"/>
<path d="M1624 159 c-3 -6 -1 -16 5 -22 8 -8 11 -5 11 11 0 24 -5 28 -16 11z"/>
<path d="M1586 125 c4 -8 11 -15 16 -15 6 0 5 6 -2 15 -7 8 -14 15 -16 15 -2
0 -1 -7 2 -15z"/>
</g>
</svg>
